HIERARCHY
ROOT joint_0
{
	OFFSET 0.000000 0.000000 0.000000
	CHANNELS 6 Xposition Yposition Zposition Zrotation Yrotation Xrotation 
	JOINT joint_1
	{
		OFFSET 7.566162 2.250183 114.799927
		CHANNELS 3 Zrotation Yrotation Xrotation
		JOINT joint_2
		{
			OFFSET -5.201660 -0.414001 104.936035
			CHANNELS 3 Zrotation Yrotation Xrotation
			JOINT joint_3
			{
				OFFSET -6.923584 -0.419739 104.718018
				CHANNELS 3 Zrotation Yrotation Xrotation
				JOINT joint_4
				{
					OFFSET 3.108887 2.881104 149.449951
					CHANNELS 3 Zrotation Yrotation Xrotation
					JOINT joint_5
					{
						OFFSET 19.988770 5.920349 90.786987
						CHANNELS 3 Zrotation Yrotation Xrotation
						End Site
						{
							OFFSET 0.000000 0.000000 0.000000
						}
					}
				}
				JOINT joint_6
				{
					OFFSET 9.283936 -30.015930 84.410034
					CHANNELS 3 Zrotation Yrotation Xrotation
					JOINT joint_7
					{
						OFFSET 47.243164 -155.716736 -23.241089
						CHANNELS 3 Zrotation Yrotation Xrotation
						JOINT joint_8
						{
							OFFSET 31.323730 -15.356873 -268.798950
							CHANNELS 3 Zrotation Yrotation Xrotation
							JOINT joint_9
							{
								OFFSET 28.122314 -2.114624 -262.450012
								CHANNELS 3 Zrotation Yrotation Xrotation
								End Site
								{
									OFFSET 0.000000 0.000000 0.000000
								}
							}
						}
					}
				}
				JOINT joint_10
				{
					OFFSET -5.580566 33.311218 83.498047
					CHANNELS 3 Zrotation Yrotation Xrotation
					JOINT joint_11
					{
						OFFSET -22.773438 160.515381 -27.138062
						CHANNELS 3 Zrotation Yrotation Xrotation
						JOINT joint_12
						{
							OFFSET 27.004395 30.848877 -267.937988
							CHANNELS 3 Zrotation Yrotation Xrotation
							JOINT joint_13
							{
								OFFSET 32.625000 14.824585 -261.518005
								CHANNELS 3 Zrotation Yrotation Xrotation
								End Site
								{
									OFFSET 0.000000 0.000000 0.000000
								}
							}
						}
					}
				}
			}
		}
	}
	JOINT joint_14
	{
		OFFSET 20.623535 -83.447632 -106.174011
		CHANNELS 3 Zrotation Yrotation Xrotation
		JOINT joint_15
		{
			OFFSET 0.661865 -23.563843 -459.915039
			CHANNELS 3 Zrotation Yrotation Xrotation
			JOINT joint_16
			{
				OFFSET -23.461670 -28.727966 -444.760971
				CHANNELS 3 Zrotation Yrotation Xrotation
				JOINT joint_17
				{
					OFFSET 178.992920 54.047363 -80.113001
					CHANNELS 3 Zrotation Yrotation Xrotation
					End Site
					{
						OFFSET 0.000000 0.000000 0.000000
					}
				}
			}
		}
	}
	JOINT joint_18
	{
		OFFSET -19.571533 84.686279 -105.380005
		CHANNELS 3 Zrotation Yrotation Xrotation
		JOINT joint_19
		{
			OFFSET -22.949951 3.639404 -459.933044
			CHANNELS 3 Zrotation Yrotation Xrotation
			JOINT joint_20
			{
				OFFSET -33.690674 4.092651 -445.010971
				CHANNELS 3 Zrotation Yrotation Xrotation
				JOINT joint_21
				{
					OFFSET 187.419678 18.953857 -76.759001
					CHANNELS 3 Zrotation Yrotation Xrotation
					End Site
					{
						OFFSET 0.000000 0.000000 0.000000
					}
				}
			}
		}
	}
}
MOTION
Frames: 10
Frame Time: 0.016667
-2763.030273 834.747131 1086.175049 0.632572 4.969761 -1.081826 -2.046929 7.155709 6.380021 -1.073928 -0.977157 -1.148495 -0.682485 1.056425 1.165300 0.258500 -4.052003 0.178290 0.000000 0.000000 0.000000 3.746752 5.302762 -7.254935 -9.020978 4.275462 -12.625405 0.068366 -56.251682 48.869558 0.000000 0.000000 0.000000 0.598069 1.884614 -1.575052 9.909826 5.061484 15.715117 -1.682412 -58.334472 -28.241024 0.000000 0.000000 0.000000 -0.100684 -20.732435 -1.633428 -5.164082 30.487801 -8.271025 -5.495969 -9.352847 0.727271 0.000000 0.000000 0.000000 -4.436145 0.596667 8.094774 -3.031602 38.436102 -11.494682 -8.685238 13.672866 -4.267439 0.000000 0.000000 0.000000 
-2752.864258 828.403503 1081.465942 1.226800 4.409432 -1.008225 -2.182541 7.355573 6.189059 -0.833402 -1.064307 -1.207919 -0.371993 1.183421 1.092121 0.208342 -3.512948 0.230321 0.000000 0.000000 0.000000 3.695971 5.281017 -6.785641 -9.375914 4.216676 -12.303721 -0.191917 -56.504006 48.940304 0.000000 0.000000 0.000000 0.730918 1.580080 -1.571629 9.823016 4.713424 16.559212 -1.875491 -59.723132 -27.868531 0.000000 0.000000 0.000000 0.649770 -20.790665 -1.853464 -4.720186 31.983238 -8.460972 -4.749457 -9.156603 0.988131 0.000000 0.000000 0.000000 -4.765929 -0.992942 9.814878 -3.267396 43.578685 -13.353816 -9.817337 12.947905 -4.549199 0.000000 0.000000 0.000000 
-2743.525635 821.671021 1076.842041 1.482420 3.697834 -1.182454 -2.505210 8.279565 5.790132 -0.537960 -1.267657 -1.135413 0.020237 1.448334 0.976912 0.200102 -3.517575 0.289060 0.000000 0.000000 0.000000 3.720187 5.003062 -6.113080 -9.590601 3.889995 -11.907640 -0.283947 -56.622004 49.064994 0.000000 0.000000 0.000000 0.919396 1.697428 -1.458366 9.793528 4.679924 17.033853 -1.953160 -62.231980 -26.078593 0.000000 0.000000 0.000000 1.068657 -20.619100 -1.732665 -4.688752 33.917329 -8.120787 -4.627951 -9.657296 1.217352 0.000000 0.000000 0.000000 -4.864256 -2.709783 11.702300 -3.337993 48.862807 -14.984547 -10.485944 12.468439 -4.694524 0.000000 0.000000 0.000000 
-2734.755859 814.914734 1072.521973 1.464743 2.953185 -1.504993 -2.959811 9.563897 5.273222 -0.188431 -1.528989 -1.024867 0.495660 1.756384 0.818979 0.215788 -3.862837 0.368759 0.000000 0.000000 0.000000 3.787243 4.585803 -5.336611 -9.607261 3.460881 -11.331949 -0.214981 -56.499445 48.910028 0.000000 0.000000 0.000000 1.199428 2.107526 -1.295690 9.751749 4.850685 17.266610 -1.968280 -65.192120 -23.441273 0.000000 0.000000 0.000000 1.338563 -20.338024 -1.372619 -4.852991 36.384457 -7.510144 -4.874922 -10.502768 1.417344 0.000000 0.000000 0.000000 -4.834263 -4.552939 13.696451 -3.360633 54.177961 -16.409288 -10.852693 12.002645 -4.682294 0.000000 0.000000 0.000000 
-2726.255615 810.120544 1069.977051 1.124310 2.414122 -1.683195 -3.310391 10.572986 4.698274 0.194153 -1.716442 -0.920403 0.992884 1.953543 0.665777 0.240904 -4.273383 0.435414 0.000000 0.000000 0.000000 3.812839 4.155107 -4.750318 -9.370627 3.148023 -10.531015 -0.003926 -55.774174 48.408858 0.000000 0.000000 0.000000 1.433000 2.602876 -1.192677 9.595230 5.102090 17.145970 -2.007296 -67.294556 -21.099374 0.000000 0.000000 0.000000 1.686664 -19.988883 -1.124790 -4.853747 38.097831 -7.037897 -5.020770 -11.004588 1.548014 0.000000 0.000000 0.000000 -4.542813 -6.403150 15.159926 -3.254767 58.774467 -17.184950 -10.723686 11.123445 -4.335352 0.000000 0.000000 0.000000 
-2717.993896 808.219116 1069.881958 0.305053 2.256119 -1.532736 -3.368730 10.950988 4.017149 0.623079 -1.754569 -0.817770 1.487088 2.010627 0.526548 0.278080 -4.726291 0.461541 0.000000 0.000000 0.000000 3.732763 3.753796 -4.471447 -8.822475 3.040675 -9.424046 0.356894 -54.269802 47.473421 0.000000 0.000000 0.000000 1.518916 3.220178 -1.198198 9.298220 5.514031 16.610825 -2.094266 -68.244757 -19.358514 0.000000 0.000000 0.000000 2.270947 -19.730372 -1.171192 -4.542733 38.679705 -6.959053 -4.881342 -11.084263 1.649468 0.000000 0.000000 0.000000 -3.756920 -8.349059 15.765324 -2.803461 62.580707 -17.209972 -9.746705 9.332801 -3.404686 0.000000 0.000000 0.000000 
-2710.002930 808.278870 1071.562012 -0.819259 2.367376 -1.223829 -3.234520 10.939280 3.289495 1.049779 -1.700311 -0.711415 1.934739 1.997923 0.395467 0.326206 -5.254568 0.463767 0.000000 0.000000 0.000000 3.606430 3.339888 -4.331045 -8.053370 3.004868 -8.130157 0.822066 -52.189860 46.187897 0.000000 0.000000 0.000000 1.539258 3.918869 -1.276180 8.907863 6.031117 15.736562 -2.206077 -68.456058 -17.917331 0.000000 0.000000 0.000000 2.932774 -19.495123 -1.369072 -4.095858 38.600422 -7.061109 -4.651942 -10.985424 1.724302 0.000000 0.000000 0.000000 -2.594020 -10.445347 15.857794 -2.124719 65.782840 -16.720479 -8.279573 6.912880 -2.030696 0.000000 0.000000 0.000000 
-2702.081299 809.483276 1074.474976 -1.836928 2.573146 -0.996824 -3.062249 10.772803 2.771493 1.355470 -1.638081 -0.649335 2.241096 1.965996 0.301615 0.366383 -5.683718 0.452640 0.000000 0.000000 0.000000 3.542154 2.908721 -4.168542 -7.236667 2.909262 -6.931937 1.290275 -49.753121 44.737333 0.000000 0.000000 0.000000 1.614119 4.392349 -1.373486 8.453491 6.355790 14.609897 -2.374092 -67.834478 -16.998203 0.000000 0.000000 0.000000 3.425535 -19.069472 -1.561739 -3.678832 37.940587 -7.097561 -4.410991 -10.691681 1.732918 0.000000 0.000000 0.000000 -1.406830 -12.599065 15.817335 -1.568892 68.129619 -15.861521 -7.025597 4.590334 -0.822024 0.000000 0.000000 0.000000 
-2694.146484 811.733215 1078.899048 -2.543173 2.842447 -0.918163 -2.940036 10.498449 2.559820 1.467114 -1.610275 -0.640867 2.352107 1.936151 0.264620 0.391354 -5.932624 0.422609 0.000000 0.000000 0.000000 3.580398 2.443172 -3.925895 -6.395463 2.698775 -5.922067 1.745220 -46.827006 43.112958 0.000000 0.000000 0.000000 1.791886 4.499971 -1.495159 7.922101 6.347332 13.186046 -2.625296 -66.118512 -16.874974 0.000000 0.000000 0.000000 3.614436 -18.294500 -1.723730 -3.363454 36.494402 -6.964267 -4.189109 -10.133049 1.637686 0.000000 0.000000 0.000000 -0.309064 -14.890263 15.699923 -1.274291 69.523357 -14.595231 -6.069540 2.698154 -0.204935 0.000000 0.000000 0.000000 
-2686.281250 815.127808 1084.553955 -3.109271 3.186980 -0.892376 -2.812063 10.104821 2.504213 1.451919 -1.589967 -0.649954 2.325563 1.892801 0.267520 0.406253 -6.083717 0.385574 0.000000 0.000000 0.000000 3.673919 1.959673 -3.643553 -5.531223 2.422045 -5.009448 2.178777 -43.561940 41.307332 0.000000 0.000000 0.000000 2.025203 4.369754 -1.660333 7.320802 6.106221 11.550677 -2.895374 -63.438220 -17.191499 0.000000 0.000000 0.000000 3.600765 -17.300907 -1.927595 -3.083762 34.423301 -6.739130 -3.946089 -9.314891 1.461120 0.000000 0.000000 0.000000 0.772148 -17.220056 15.373396 -1.080181 70.063650 -13.024884 -5.130390 0.990109 -0.007007 0.000000 0.000000 0.000000 
